<?xml version="1.0" encoding="UTF-8" standalone="no"?>
<!DOCTYPE svg PUBLIC "-//W3C//DTD SVG 1.1//EN"
 "http://www.w3.org/Graphics/SVG/1.1/DTD/svg11.dtd">
<!-- Generated by graphviz version 2.43.0 (0)
 -->
<!-- Title: battalion_callgraph Pages: 1 -->
<svg width="3394pt" height="514pt"
 viewBox="0.00 0.00 3394.00 514.00" xmlns="http://www.w3.org/2000/svg" xmlns:xlink="http://www.w3.org/1999/xlink">
<g id="graph0" class="graph" transform="scale(1 1) rotate(0) translate(4 510)">
<title>battalion_callgraph</title>
<polygon fill="white" stroke="transparent" points="-4,4 -4,-510 3390,-510 3390,4 -4,4"/>
<!-- main -->
<g id="node1" class="node">
<title>main</title>
<path fill="lightgreen" stroke="black" d="M213.5,-506C213.5,-506 183.5,-506 183.5,-506 177.5,-506 171.5,-500 171.5,-494 171.5,-494 171.5,-482 171.5,-482 171.5,-476 177.5,-470 183.5,-470 183.5,-470 213.5,-470 213.5,-470 219.5,-470 225.5,-476 225.5,-482 225.5,-482 225.5,-494 225.5,-494 225.5,-500 219.5,-506 213.5,-506"/>
<text text-anchor="middle" x="198.5" y="-484.3" font-family="Arial" font-size="14.00">main</text>
</g>
<!-- initialization -->
<g id="node5" class="node">
<title>initialization</title>
<path fill="lightyellow" stroke="black" d="M369.5,-412C369.5,-412 307.5,-412 307.5,-412 301.5,-412 295.5,-406 295.5,-400 295.5,-400 295.5,-388 295.5,-388 295.5,-382 301.5,-376 307.5,-376 307.5,-376 369.5,-376 369.5,-376 375.5,-376 381.5,-382 381.5,-388 381.5,-388 381.5,-400 381.5,-400 381.5,-406 375.5,-412 369.5,-412"/>
<text text-anchor="middle" x="338.5" y="-390.3" font-family="Arial" font-size="14.00">initialization</text>
</g>
<!-- main&#45;&gt;initialization -->
<g id="edge34" class="edge">
<title>main&#45;&gt;initialization</title>
<path fill="none" stroke="#666666" d="M225.83,-482C266.57,-482 338.5,-482 338.5,-482 338.5,-482 338.5,-419.23 338.5,-419.23"/>
<polygon fill="#666666" stroke="#666666" points="340.95,-419.23 338.5,-412.23 336.05,-419.23 340.95,-419.23"/>
</g>
<!-- cleanup -->
<g id="node26" class="node">
<title>cleanup</title>
<path fill="lightgray" stroke="black" d="M153.5,-318C153.5,-318 113.5,-318 113.5,-318 107.5,-318 101.5,-312 101.5,-306 101.5,-306 101.5,-294 101.5,-294 101.5,-288 107.5,-282 113.5,-282 113.5,-282 153.5,-282 153.5,-282 159.5,-282 165.5,-288 165.5,-294 165.5,-294 165.5,-306 165.5,-306 165.5,-312 159.5,-318 153.5,-318"/>
<text text-anchor="middle" x="133.5" y="-296.3" font-family="Arial" font-size="14.00">cleanup</text>
</g>
<!-- main&#45;&gt;cleanup -->
<g id="edge33" class="edge">
<title>main&#45;&gt;cleanup</title>
<path fill="none" stroke="#666666" d="M171.46,-482C155.05,-482 137.25,-482 137.25,-482 137.25,-482 137.25,-325.12 137.25,-325.12"/>
<polygon fill="#666666" stroke="#666666" points="139.7,-325.12 137.25,-318.12 134.8,-325.12 139.7,-325.12"/>
</g>
<!-- setPlayConditions -->
<g id="node27" class="node">
<title>setPlayConditions</title>
<path fill="lightgray" stroke="black" d="M1112,-224C1112,-224 1011,-224 1011,-224 1005,-224 999,-218 999,-212 999,-212 999,-200 999,-200 999,-194 1005,-188 1011,-188 1011,-188 1112,-188 1112,-188 1118,-188 1124,-194 1124,-200 1124,-200 1124,-212 1124,-212 1124,-218 1118,-224 1112,-224"/>
<text text-anchor="middle" x="1061.5" y="-202.3" font-family="Arial" font-size="14.00">setPlayConditions</text>
</g>
<!-- main&#45;&gt;setPlayConditions -->
<g id="edge35" class="edge">
<title>main&#45;&gt;setPlayConditions</title>
<path fill="none" stroke="#666666" d="M225.67,-494C371.94,-494 1059,-494 1059,-494 1059,-494 1059,-231.02 1059,-231.02"/>
<polygon fill="#666666" stroke="#666666" points="1061.45,-231.02 1059,-224.02 1056.55,-231.02 1061.45,-231.02"/>
</g>
<!-- showCommands -->
<g id="node37" class="node">
<title>showCommands</title>
<path fill="lightgray" stroke="black" d="M107,-412C107,-412 12,-412 12,-412 6,-412 0,-406 0,-400 0,-400 0,-388 0,-388 0,-382 6,-376 12,-376 12,-376 107,-376 107,-376 113,-376 119,-382 119,-388 119,-388 119,-400 119,-400 119,-406 113,-412 107,-412"/>
<text text-anchor="middle" x="59.5" y="-390.3" font-family="Arial" font-size="14.00">showCommands</text>
</g>
<!-- main&#45;&gt;showCommands -->
<g id="edge36" class="edge">
<title>main&#45;&gt;showCommands</title>
<path fill="none" stroke="#666666" d="M171.37,-494C130.92,-494 59.5,-494 59.5,-494 59.5,-494 59.5,-419.34 59.5,-419.34"/>
<polygon fill="#666666" stroke="#666666" points="61.95,-419.34 59.5,-412.34 57.05,-419.34 61.95,-419.34"/>
</g>
<!-- doUpdate -->
<g id="node2" class="node">
<title>doUpdate</title>
<path fill="lightyellow" stroke="black" d="M1976,-318C1976,-318 1925,-318 1925,-318 1919,-318 1913,-312 1913,-306 1913,-306 1913,-294 1913,-294 1913,-288 1919,-282 1925,-282 1925,-282 1976,-282 1976,-282 1982,-282 1988,-288 1988,-294 1988,-294 1988,-306 1988,-306 1988,-312 1982,-318 1976,-318"/>
<text text-anchor="middle" x="1950.5" y="-296.3" font-family="Arial" font-size="14.00">doUpdate</text>
</g>
<!-- updateProjectiles -->
<g id="node19" class="node">
<title>updateProjectiles</title>
<path fill="wheat" stroke="black" d="M2076.5,-224C2076.5,-224 1980.5,-224 1980.5,-224 1974.5,-224 1968.5,-218 1968.5,-212 1968.5,-212 1968.5,-200 1968.5,-200 1968.5,-194 1974.5,-188 1980.5,-188 1980.5,-188 2076.5,-188 2076.5,-188 2082.5,-188 2088.5,-194 2088.5,-200 2088.5,-200 2088.5,-212 2088.5,-212 2088.5,-218 2082.5,-224 2076.5,-224"/>
<text text-anchor="middle" x="2028.5" y="-202.3" font-family="Arial" font-size="14.00">updateProjectiles</text>
</g>
<!-- doUpdate&#45;&gt;updateProjectiles -->
<g id="edge19" class="edge">
<title>doUpdate&#45;&gt;updateProjectiles</title>
<path fill="none" stroke="#666666" d="M1975,-281.88C1975,-281.88 1975,-231.07 1975,-231.07"/>
<polygon fill="#666666" stroke="#666666" points="1977.45,-231.07 1975,-224.07 1972.55,-231.07 1977.45,-231.07"/>
</g>
<!-- updateTargets -->
<g id="node20" class="node">
<title>updateTargets</title>
<path fill="wheat" stroke="black" d="M2426.5,-224C2426.5,-224 2348.5,-224 2348.5,-224 2342.5,-224 2336.5,-218 2336.5,-212 2336.5,-212 2336.5,-200 2336.5,-200 2336.5,-194 2342.5,-188 2348.5,-188 2348.5,-188 2426.5,-188 2426.5,-188 2432.5,-188 2438.5,-194 2438.5,-200 2438.5,-200 2438.5,-212 2438.5,-212 2438.5,-218 2432.5,-224 2426.5,-224"/>
<text text-anchor="middle" x="2387.5" y="-202.3" font-family="Arial" font-size="14.00">updateTargets</text>
</g>
<!-- doUpdate&#45;&gt;updateTargets -->
<g id="edge23" class="edge">
<title>doUpdate&#45;&gt;updateTargets</title>
<path fill="none" stroke="#666666" d="M1988.14,-303C2094.14,-303 2387.5,-303 2387.5,-303 2387.5,-303 2387.5,-231.24 2387.5,-231.24"/>
<polygon fill="#666666" stroke="#666666" points="2389.95,-231.24 2387.5,-224.24 2385.05,-231.24 2389.95,-231.24"/>
</g>
<!-- updateBooms -->
<g id="node21" class="node">
<title>updateBooms</title>
<path fill="wheat" stroke="black" d="M2214,-224C2214,-224 2137,-224 2137,-224 2131,-224 2125,-218 2125,-212 2125,-212 2125,-200 2125,-200 2125,-194 2131,-188 2137,-188 2137,-188 2214,-188 2214,-188 2220,-188 2226,-194 2226,-200 2226,-200 2226,-212 2226,-212 2226,-218 2220,-224 2214,-224"/>
<text text-anchor="middle" x="2175.5" y="-202.3" font-family="Arial" font-size="14.00">updateBooms</text>
</g>
<!-- doUpdate&#45;&gt;updateBooms -->
<g id="edge17" class="edge">
<title>doUpdate&#45;&gt;updateBooms</title>
<path fill="none" stroke="#666666" d="M1988.16,-289C2052.21,-289 2175.5,-289 2175.5,-289 2175.5,-289 2175.5,-231.01 2175.5,-231.01"/>
<polygon fill="#666666" stroke="#666666" points="2177.95,-231.01 2175.5,-224.01 2173.05,-231.01 2177.95,-231.01"/>
</g>
<!-- updateSlagTanks -->
<g id="node22" class="node">
<title>updateSlagTanks</title>
<path fill="wheat" stroke="black" d="M1920.5,-224C1920.5,-224 1824.5,-224 1824.5,-224 1818.5,-224 1812.5,-218 1812.5,-212 1812.5,-212 1812.5,-200 1812.5,-200 1812.5,-194 1818.5,-188 1824.5,-188 1824.5,-188 1920.5,-188 1920.5,-188 1926.5,-188 1932.5,-194 1932.5,-200 1932.5,-200 1932.5,-212 1932.5,-212 1932.5,-218 1926.5,-224 1920.5,-224"/>
<text text-anchor="middle" x="1872.5" y="-202.3" font-family="Arial" font-size="14.00">updateSlagTanks</text>
</g>
<!-- doUpdate&#45;&gt;updateSlagTanks -->
<g id="edge21" class="edge">
<title>doUpdate&#45;&gt;updateSlagTanks</title>
<path fill="none" stroke="#666666" d="M1922.75,-281.88C1922.75,-281.88 1922.75,-231.07 1922.75,-231.07"/>
<polygon fill="#666666" stroke="#666666" points="1925.2,-231.07 1922.75,-224.07 1920.3,-231.07 1925.2,-231.07"/>
</g>
<!-- updatetrees -->
<g id="node23" class="node">
<title>updatetrees</title>
<path fill="wheat" stroke="black" d="M2698.5,-224C2698.5,-224 2634.5,-224 2634.5,-224 2628.5,-224 2622.5,-218 2622.5,-212 2622.5,-212 2622.5,-200 2622.5,-200 2622.5,-194 2628.5,-188 2634.5,-188 2634.5,-188 2698.5,-188 2698.5,-188 2704.5,-188 2710.5,-194 2710.5,-200 2710.5,-200 2710.5,-212 2710.5,-212 2710.5,-218 2704.5,-224 2698.5,-224"/>
<text text-anchor="middle" x="2666.5" y="-202.3" font-family="Arial" font-size="14.00">updatetrees</text>
</g>
<!-- doUpdate&#45;&gt;updatetrees -->
<g id="edge25" class="edge">
<title>doUpdate&#45;&gt;updatetrees</title>
<path fill="none" stroke="#666666" d="M1981.5,-281.96C1981.5,-268.71 1981.5,-253 1981.5,-253 1981.5,-253 2635.67,-253 2635.67,-253 2635.67,-253 2635.67,-231.04 2635.67,-231.04"/>
<polygon fill="#666666" stroke="#666666" points="2638.12,-231.04 2635.67,-224.04 2633.22,-231.04 2638.12,-231.04"/>
</g>
<!-- updateDeadMonster -->
<g id="node24" class="node">
<title>updateDeadMonster</title>
<path fill="wheat" stroke="black" d="M2500.5,-130C2500.5,-130 2384.5,-130 2384.5,-130 2378.5,-130 2372.5,-124 2372.5,-118 2372.5,-118 2372.5,-106 2372.5,-106 2372.5,-100 2378.5,-94 2384.5,-94 2384.5,-94 2500.5,-94 2500.5,-94 2506.5,-94 2512.5,-100 2512.5,-106 2512.5,-106 2512.5,-118 2512.5,-118 2512.5,-124 2506.5,-130 2500.5,-130"/>
<text text-anchor="middle" x="2442.5" y="-108.3" font-family="Arial" font-size="14.00">updateDeadMonster</text>
</g>
<!-- doUpdate&#45;&gt;updateDeadMonster -->
<g id="edge18" class="edge">
<title>doUpdate&#45;&gt;updateDeadMonster</title>
<path fill="none" stroke="#666666" d="M1988.26,-310C2108.63,-310 2475.5,-310 2475.5,-310 2475.5,-310 2475.5,-137.27 2475.5,-137.27"/>
<polygon fill="#666666" stroke="#666666" points="2477.95,-137.27 2475.5,-130.27 2473.05,-137.27 2477.95,-137.27"/>
</g>
<!-- updateVapourLook -->
<g id="node25" class="node">
<title>updateVapourLook</title>
<path fill="wheat" stroke="black" d="M2324.5,-130C2324.5,-130 2218.5,-130 2218.5,-130 2212.5,-130 2206.5,-124 2206.5,-118 2206.5,-118 2206.5,-106 2206.5,-106 2206.5,-100 2212.5,-94 2218.5,-94 2218.5,-94 2324.5,-94 2324.5,-94 2330.5,-94 2336.5,-100 2336.5,-106 2336.5,-106 2336.5,-118 2336.5,-118 2336.5,-124 2330.5,-130 2324.5,-130"/>
<text text-anchor="middle" x="2271.5" y="-108.3" font-family="Arial" font-size="14.00">updateVapourLook</text>
</g>
<!-- doUpdate&#45;&gt;updateVapourLook -->
<g id="edge24" class="edge">
<title>doUpdate&#45;&gt;updateVapourLook</title>
<path fill="none" stroke="#666666" d="M1988.12,-296C2074.81,-296 2281.25,-296 2281.25,-296 2281.25,-296 2281.25,-137.32 2281.25,-137.32"/>
<polygon fill="#666666" stroke="#666666" points="2283.7,-137.32 2281.25,-130.32 2278.8,-137.32 2283.7,-137.32"/>
</g>
<!-- doUpdate&#45;&gt;setPlayConditions -->
<g id="edge16" class="edge">
<title>doUpdate&#45;&gt;setPlayConditions</title>
<path fill="none" stroke="#666666" d="M1912.76,-312C1746.97,-312 1091.5,-312 1091.5,-312 1091.5,-312 1091.5,-231.46 1091.5,-231.46"/>
<polygon fill="#666666" stroke="#666666" points="1093.95,-231.46 1091.5,-224.46 1089.05,-231.46 1093.95,-231.46"/>
</g>
<!-- addRandomTarget -->
<g id="node28" class="node">
<title>addRandomTarget</title>
<path fill="lightgray" stroke="black" d="M1350.5,-224C1350.5,-224 1246.5,-224 1246.5,-224 1240.5,-224 1234.5,-218 1234.5,-212 1234.5,-212 1234.5,-200 1234.5,-200 1234.5,-194 1240.5,-188 1246.5,-188 1246.5,-188 1350.5,-188 1350.5,-188 1356.5,-188 1362.5,-194 1362.5,-200 1362.5,-200 1362.5,-212 1362.5,-212 1362.5,-218 1356.5,-224 1350.5,-224"/>
<text text-anchor="middle" x="1298.5" y="-202.3" font-family="Arial" font-size="14.00">addRandomTarget</text>
</g>
<!-- doUpdate&#45;&gt;addRandomTarget -->
<g id="edge13" class="edge">
<title>doUpdate&#45;&gt;addRandomTarget</title>
<path fill="none" stroke="#666666" d="M1912.63,-302C1773.47,-302 1298.5,-302 1298.5,-302 1298.5,-302 1298.5,-231.06 1298.5,-231.06"/>
<polygon fill="#666666" stroke="#666666" points="1300.95,-231.06 1298.5,-224.06 1296.05,-231.06 1300.95,-231.06"/>
</g>
<!-- checkForBlock -->
<g id="node31" class="node">
<title>checkForBlock</title>
<path fill="lightgray" stroke="black" d="M1809,-130C1809,-130 1728,-130 1728,-130 1722,-130 1716,-124 1716,-118 1716,-118 1716,-106 1716,-106 1716,-100 1722,-94 1728,-94 1728,-94 1809,-94 1809,-94 1815,-94 1821,-100 1821,-106 1821,-106 1821,-118 1821,-118 1821,-124 1815,-130 1809,-130"/>
<text text-anchor="middle" x="1768.5" y="-108.3" font-family="Arial" font-size="14.00">checkForBlock</text>
</g>
<!-- doUpdate&#45;&gt;checkForBlock -->
<g id="edge14" class="edge">
<title>doUpdate&#45;&gt;checkForBlock</title>
<path fill="none" stroke="#666666" d="M1936,-281.97C1936,-234.92 1936,-112 1936,-112 1936,-112 1828.04,-112 1828.04,-112"/>
<polygon fill="#666666" stroke="#666666" points="1828.04,-109.55 1821.04,-112 1828.04,-114.45 1828.04,-109.55"/>
</g>
<!-- quickTanks -->
<g id="node32" class="node">
<title>quickTanks</title>
<path fill="lightgray" stroke="black" d="M1447,-130C1447,-130 1388,-130 1388,-130 1382,-130 1376,-124 1376,-118 1376,-118 1376,-106 1376,-106 1376,-100 1382,-94 1388,-94 1388,-94 1447,-94 1447,-94 1453,-94 1459,-100 1459,-106 1459,-106 1459,-118 1459,-118 1459,-124 1453,-130 1447,-130"/>
<text text-anchor="middle" x="1417.5" y="-108.3" font-family="Arial" font-size="14.00">quickTanks</text>
</g>
<!-- doUpdate&#45;&gt;quickTanks -->
<g id="edge15" class="edge">
<title>doUpdate&#45;&gt;quickTanks</title>
<path fill="none" stroke="#666666" d="M1912.6,-297C1790.83,-297 1417.5,-297 1417.5,-297 1417.5,-297 1417.5,-137.08 1417.5,-137.08"/>
<polygon fill="#666666" stroke="#666666" points="1419.95,-137.08 1417.5,-130.08 1415.05,-137.08 1419.95,-137.08"/>
</g>
<!-- updateScores -->
<g id="node33" class="node">
<title>updateScores</title>
<path fill="lightgray" stroke="black" d="M1560.5,-224C1560.5,-224 1484.5,-224 1484.5,-224 1478.5,-224 1472.5,-218 1472.5,-212 1472.5,-212 1472.5,-200 1472.5,-200 1472.5,-194 1478.5,-188 1484.5,-188 1484.5,-188 1560.5,-188 1560.5,-188 1566.5,-188 1572.5,-194 1572.5,-200 1572.5,-200 1572.5,-212 1572.5,-212 1572.5,-218 1566.5,-224 1560.5,-224"/>
<text text-anchor="middle" x="1522.5" y="-202.3" font-family="Arial" font-size="14.00">updateScores</text>
</g>
<!-- doUpdate&#45;&gt;updateScores -->
<g id="edge20" class="edge">
<title>doUpdate&#45;&gt;updateScores</title>
<path fill="none" stroke="#666666" d="M1912.89,-292C1808.45,-292 1522.5,-292 1522.5,-292 1522.5,-292 1522.5,-231.24 1522.5,-231.24"/>
<polygon fill="#666666" stroke="#666666" points="1524.95,-231.24 1522.5,-224.24 1520.05,-231.24 1524.95,-231.24"/>
</g>
<!-- addProjectile -->
<g id="node40" class="node">
<title>addProjectile</title>
<path fill="lightgray" stroke="black" d="M2478,-36C2478,-36 2407,-36 2407,-36 2401,-36 2395,-30 2395,-24 2395,-24 2395,-12 2395,-12 2395,-6 2401,0 2407,0 2407,0 2478,0 2478,0 2484,0 2490,-6 2490,-12 2490,-12 2490,-24 2490,-24 2490,-30 2484,-36 2478,-36"/>
<text text-anchor="middle" x="2442.5" y="-14.3" font-family="Arial" font-size="14.00">addProjectile</text>
</g>
<!-- doUpdate&#45;&gt;addProjectile -->
<g id="edge12" class="edge">
<title>doUpdate&#45;&gt;addProjectile</title>
<path fill="none" stroke="#666666" d="M1939.5,-281.66C1939.5,-220.45 1939.5,-27 1939.5,-27 1939.5,-27 2387.73,-27 2387.73,-27"/>
<polygon fill="#666666" stroke="#666666" points="2387.73,-29.45 2394.73,-27 2387.73,-24.55 2387.73,-29.45"/>
</g>
<!-- addNewTank -->
<g id="node42" class="node">
<title>addNewTank</title>
<path fill="lightgray" stroke="black" d="M1215,-130C1215,-130 1144,-130 1144,-130 1138,-130 1132,-124 1132,-118 1132,-118 1132,-106 1132,-106 1132,-100 1138,-94 1144,-94 1144,-94 1215,-94 1215,-94 1221,-94 1227,-100 1227,-106 1227,-106 1227,-118 1227,-118 1227,-124 1221,-130 1215,-130"/>
<text text-anchor="middle" x="1179.5" y="-108.3" font-family="Arial" font-size="14.00">addNewTank</text>
</g>
<!-- doUpdate&#45;&gt;addNewTank -->
<g id="edge11" class="edge">
<title>doUpdate&#45;&gt;addNewTank</title>
<path fill="none" stroke="#666666" d="M1912.79,-307C1758,-307 1179.5,-307 1179.5,-307 1179.5,-307 1179.5,-137.35 1179.5,-137.35"/>
<polygon fill="#666666" stroke="#666666" points="1181.95,-137.35 1179.5,-130.35 1177.05,-137.35 1181.95,-137.35"/>
</g>
<!-- updateTanks -->
<g id="node43" class="node">
<title>updateTanks</title>
<path fill="lightgray" stroke="black" d="M1690,-224C1690,-224 1621,-224 1621,-224 1615,-224 1609,-218 1609,-212 1609,-212 1609,-200 1609,-200 1609,-194 1615,-188 1621,-188 1621,-188 1690,-188 1690,-188 1696,-188 1702,-194 1702,-200 1702,-200 1702,-212 1702,-212 1702,-218 1696,-224 1690,-224"/>
<text text-anchor="middle" x="1655.5" y="-202.3" font-family="Arial" font-size="14.00">updateTanks</text>
</g>
<!-- doUpdate&#45;&gt;updateTanks -->
<g id="edge22" class="edge">
<title>doUpdate&#45;&gt;updateTanks</title>
<path fill="none" stroke="#666666" d="M1912.84,-287C1833.31,-287 1655.5,-287 1655.5,-287 1655.5,-287 1655.5,-231.38 1655.5,-231.38"/>
<polygon fill="#666666" stroke="#666666" points="1657.95,-231.38 1655.5,-224.38 1653.05,-231.38 1657.95,-231.38"/>
</g>
<!-- doDisplay -->
<g id="node3" class="node">
<title>doDisplay</title>
<path fill="lightyellow" stroke="black" d="M2611.5,-318C2611.5,-318 2559.5,-318 2559.5,-318 2553.5,-318 2547.5,-312 2547.5,-306 2547.5,-306 2547.5,-294 2547.5,-294 2547.5,-288 2553.5,-282 2559.5,-282 2559.5,-282 2611.5,-282 2611.5,-282 2617.5,-282 2623.5,-288 2623.5,-294 2623.5,-294 2623.5,-306 2623.5,-306 2623.5,-312 2617.5,-318 2611.5,-318"/>
<text text-anchor="middle" x="2585.5" y="-296.3" font-family="Arial" font-size="14.00">doDisplay</text>
</g>
<!-- doDrawing -->
<g id="node12" class="node">
<title>doDrawing</title>
<path fill="lightcyan" stroke="black" d="M2990,-224C2990,-224 2933,-224 2933,-224 2927,-224 2921,-218 2921,-212 2921,-212 2921,-200 2921,-200 2921,-194 2927,-188 2933,-188 2933,-188 2990,-188 2990,-188 2996,-188 3002,-194 3002,-200 3002,-200 3002,-212 3002,-212 3002,-218 2996,-224 2990,-224"/>
<text text-anchor="middle" x="2961.5" y="-202.3" font-family="Arial" font-size="14.00">doDrawing</text>
</g>
<!-- doDisplay&#45;&gt;doDrawing -->
<g id="edge5" class="edge">
<title>doDisplay&#45;&gt;doDrawing</title>
<path fill="none" stroke="#666666" d="M2585,-281.96C2585,-274.25 2585,-267 2585,-267 2585,-267 2961.5,-267 2961.5,-267 2961.5,-267 2961.5,-231.3 2961.5,-231.3"/>
<polygon fill="#666666" stroke="#666666" points="2963.95,-231.3 2961.5,-224.3 2959.05,-231.3 2963.95,-231.3"/>
</g>
<!-- id -->
<g id="node4" class="node">
<title>id</title>
<path fill="lightyellow" stroke="black" d="M2660.5,-412C2660.5,-412 2630.5,-412 2630.5,-412 2624.5,-412 2618.5,-406 2618.5,-400 2618.5,-400 2618.5,-388 2618.5,-388 2618.5,-382 2624.5,-376 2630.5,-376 2630.5,-376 2660.5,-376 2660.5,-376 2666.5,-376 2672.5,-382 2672.5,-388 2672.5,-388 2672.5,-400 2672.5,-400 2672.5,-406 2666.5,-412 2660.5,-412"/>
<text text-anchor="middle" x="2645.5" y="-390.3" font-family="Arial" font-size="14.00">id</text>
</g>
<!-- id&#45;&gt;doUpdate -->
<g id="edge30" class="edge">
<title>id&#45;&gt;doUpdate</title>
<path fill="none" stroke="#666666" d="M2618.26,-394C2489.76,-394 1950.5,-394 1950.5,-394 1950.5,-394 1950.5,-325.12 1950.5,-325.12"/>
<polygon fill="#666666" stroke="#666666" points="1952.95,-325.12 1950.5,-318.12 1948.05,-325.12 1952.95,-325.12"/>
</g>
<!-- id&#45;&gt;doDisplay -->
<g id="edge29" class="edge">
<title>id&#45;&gt;doDisplay</title>
<path fill="none" stroke="#666666" d="M2647.83,-375.88C2647.83,-348.56 2647.83,-300 2647.83,-300 2647.83,-300 2630.56,-300 2630.56,-300"/>
<polygon fill="#666666" stroke="#666666" points="2630.56,-297.55 2623.56,-300 2630.56,-302.45 2630.56,-297.55"/>
</g>
<!-- checkMouse -->
<g id="node11" class="node">
<title>checkMouse</title>
<path fill="lightpink" stroke="black" d="M2741,-318C2741,-318 2672,-318 2672,-318 2666,-318 2660,-312 2660,-306 2660,-306 2660,-294 2660,-294 2660,-288 2666,-282 2672,-282 2672,-282 2741,-282 2741,-282 2747,-282 2753,-288 2753,-294 2753,-294 2753,-306 2753,-306 2753,-312 2747,-318 2741,-318"/>
<text text-anchor="middle" x="2706.5" y="-296.3" font-family="Arial" font-size="14.00">checkMouse</text>
</g>
<!-- id&#45;&gt;checkMouse -->
<g id="edge28" class="edge">
<title>id&#45;&gt;checkMouse</title>
<path fill="none" stroke="#666666" d="M2666.25,-375.88C2666.25,-375.88 2666.25,-325.07 2666.25,-325.07"/>
<polygon fill="#666666" stroke="#666666" points="2668.7,-325.07 2666.25,-318.07 2663.8,-325.07 2668.7,-325.07"/>
</g>
<!-- autopilot -->
<g id="node39" class="node">
<title>autopilot</title>
<path fill="lightgray" stroke="black" d="M2845.5,-318C2845.5,-318 2801.5,-318 2801.5,-318 2795.5,-318 2789.5,-312 2789.5,-306 2789.5,-306 2789.5,-294 2789.5,-294 2789.5,-288 2795.5,-282 2801.5,-282 2801.5,-282 2845.5,-282 2845.5,-282 2851.5,-282 2857.5,-288 2857.5,-294 2857.5,-294 2857.5,-306 2857.5,-306 2857.5,-312 2851.5,-318 2845.5,-318"/>
<text text-anchor="middle" x="2823.5" y="-296.3" font-family="Arial" font-size="14.00">autopilot</text>
</g>
<!-- id&#45;&gt;autopilot -->
<g id="edge27" class="edge">
<title>id&#45;&gt;autopilot</title>
<path fill="none" stroke="#666666" d="M2672.53,-394C2722.33,-394 2823.5,-394 2823.5,-394 2823.5,-394 2823.5,-325.12 2823.5,-325.12"/>
<polygon fill="#666666" stroke="#666666" points="2825.95,-325.12 2823.5,-318.12 2821.05,-325.12 2825.95,-325.12"/>
</g>
<!-- initialization&#45;&gt;cleanup -->
<g id="edge31" class="edge">
<title>initialization&#45;&gt;cleanup</title>
<path fill="none" stroke="#666666" d="M299,-375.96C299,-368.25 299,-361 299,-361 299,-361 160.5,-361 160.5,-361 160.5,-361 160.5,-325.3 160.5,-325.3"/>
<polygon fill="#666666" stroke="#666666" points="162.95,-325.3 160.5,-318.3 158.05,-325.3 162.95,-325.3"/>
</g>
<!-- goToHighDetail -->
<g id="node35" class="node">
<title>goToHighDetail</title>
<path fill="lightgray" stroke="black" d="M297.5,-318C297.5,-318 213.5,-318 213.5,-318 207.5,-318 201.5,-312 201.5,-306 201.5,-306 201.5,-294 201.5,-294 201.5,-288 207.5,-282 213.5,-282 213.5,-282 297.5,-282 297.5,-282 303.5,-282 309.5,-288 309.5,-294 309.5,-294 309.5,-306 309.5,-306 309.5,-312 303.5,-318 297.5,-318"/>
<text text-anchor="middle" x="255.5" y="-296.3" font-family="Arial" font-size="14.00">goToHighDetail</text>
</g>
<!-- initialization&#45;&gt;goToHighDetail -->
<g id="edge32" class="edge">
<title>initialization&#45;&gt;goToHighDetail</title>
<path fill="none" stroke="#666666" d="M302.5,-375.88C302.5,-375.88 302.5,-325.07 302.5,-325.07"/>
<polygon fill="#666666" stroke="#666666" points="304.95,-325.07 302.5,-318.07 300.05,-325.07 304.95,-325.07"/>
</g>
<!-- checkInput -->
<g id="node6" class="node">
<title>checkInput</title>
<path fill="lightpink" stroke="black" d="M973.5,-412C973.5,-412 915.5,-412 915.5,-412 909.5,-412 903.5,-406 903.5,-400 903.5,-400 903.5,-388 903.5,-388 903.5,-382 909.5,-376 915.5,-376 915.5,-376 973.5,-376 973.5,-376 979.5,-376 985.5,-382 985.5,-388 985.5,-388 985.5,-400 985.5,-400 985.5,-406 979.5,-412 973.5,-412"/>
<text text-anchor="middle" x="944.5" y="-390.3" font-family="Arial" font-size="14.00">checkInput</text>
</g>
<!-- goto3d -->
<g id="node17" class="node">
<title>goto3d</title>
<path fill="lightcyan" stroke="black" d="M1014.5,-318C1014.5,-318 980.5,-318 980.5,-318 974.5,-318 968.5,-312 968.5,-306 968.5,-306 968.5,-294 968.5,-294 968.5,-288 974.5,-282 980.5,-282 980.5,-282 1014.5,-282 1014.5,-282 1020.5,-282 1026.5,-288 1026.5,-294 1026.5,-294 1026.5,-306 1026.5,-306 1026.5,-312 1020.5,-318 1014.5,-318"/>
<text text-anchor="middle" x="997.5" y="-296.3" font-family="Arial" font-size="14.00">goto3d</text>
</g>
<!-- checkInput&#45;&gt;goto3d -->
<g id="edge3" class="edge">
<title>checkInput&#45;&gt;goto3d</title>
<path fill="none" stroke="#666666" d="M977,-375.88C977,-375.88 977,-325.07 977,-325.07"/>
<polygon fill="#666666" stroke="#666666" points="979.45,-325.07 977,-318.07 974.55,-325.07 979.45,-325.07"/>
</g>
<!-- goto1d -->
<g id="node18" class="node">
<title>goto1d</title>
<path fill="lightcyan" stroke="black" d="M920.5,-318C920.5,-318 886.5,-318 886.5,-318 880.5,-318 874.5,-312 874.5,-306 874.5,-306 874.5,-294 874.5,-294 874.5,-288 880.5,-282 886.5,-282 886.5,-282 920.5,-282 920.5,-282 926.5,-282 932.5,-288 932.5,-294 932.5,-294 932.5,-306 932.5,-306 932.5,-312 926.5,-318 920.5,-318"/>
<text text-anchor="middle" x="903.5" y="-296.3" font-family="Arial" font-size="14.00">goto1d</text>
</g>
<!-- checkInput&#45;&gt;goto1d -->
<g id="edge2" class="edge">
<title>checkInput&#45;&gt;goto1d</title>
<path fill="none" stroke="#666666" d="M918,-375.88C918,-375.88 918,-325.07 918,-325.07"/>
<polygon fill="#666666" stroke="#666666" points="920.45,-325.07 918,-318.07 915.55,-325.07 920.45,-325.07"/>
</g>
<!-- processKey -->
<g id="node7" class="node">
<title>processKey</title>
<path fill="lightpink" stroke="black" d="M593,-412C593,-412 530,-412 530,-412 524,-412 518,-406 518,-400 518,-400 518,-388 518,-388 518,-382 524,-376 530,-376 530,-376 593,-376 593,-376 599,-376 605,-382 605,-388 605,-388 605,-400 605,-400 605,-406 599,-412 593,-412"/>
<text text-anchor="middle" x="561.5" y="-390.3" font-family="Arial" font-size="14.00">processKey</text>
</g>
<!-- demoKeys -->
<g id="node8" class="node">
<title>demoKeys</title>
<path fill="lightpink" stroke="black" d="M826,-318C826,-318 769,-318 769,-318 763,-318 757,-312 757,-306 757,-306 757,-294 757,-294 757,-288 763,-282 769,-282 769,-282 826,-282 826,-282 832,-282 838,-288 838,-294 838,-294 838,-306 838,-306 838,-312 832,-318 826,-318"/>
<text text-anchor="middle" x="797.5" y="-296.3" font-family="Arial" font-size="14.00">demoKeys</text>
</g>
<!-- processKey&#45;&gt;demoKeys -->
<g id="edge38" class="edge">
<title>processKey&#45;&gt;demoKeys</title>
<path fill="none" stroke="#666666" d="M605.06,-394C673.25,-394 797.5,-394 797.5,-394 797.5,-394 797.5,-325.12 797.5,-325.12"/>
<polygon fill="#666666" stroke="#666666" points="799.95,-325.12 797.5,-318.12 795.05,-325.12 799.95,-325.12"/>
</g>
<!-- playKeys -->
<g id="node9" class="node">
<title>playKeys</title>
<path fill="lightpink" stroke="black" d="M709,-318C709,-318 662,-318 662,-318 656,-318 650,-312 650,-306 650,-306 650,-294 650,-294 650,-288 656,-282 662,-282 662,-282 709,-282 709,-282 715,-282 721,-288 721,-294 721,-294 721,-306 721,-306 721,-312 715,-318 709,-318"/>
<text text-anchor="middle" x="685.5" y="-296.3" font-family="Arial" font-size="14.00">playKeys</text>
</g>
<!-- processKey&#45;&gt;playKeys -->
<g id="edge42" class="edge">
<title>processKey&#45;&gt;playKeys</title>
<path fill="none" stroke="#666666" d="M605.22,-385C640.92,-385 685.5,-385 685.5,-385 685.5,-385 685.5,-325.03 685.5,-325.03"/>
<polygon fill="#666666" stroke="#666666" points="687.95,-325.03 685.5,-318.03 683.05,-325.03 687.95,-325.03"/>
</g>
<!-- playNoPauseKeys -->
<g id="node10" class="node">
<title>playNoPauseKeys</title>
<path fill="lightpink" stroke="black" d="M461,-318C461,-318 358,-318 358,-318 352,-318 346,-312 346,-306 346,-306 346,-294 346,-294 346,-288 352,-282 358,-282 358,-282 461,-282 461,-282 467,-282 473,-288 473,-294 473,-294 473,-306 473,-306 473,-312 467,-318 461,-318"/>
<text text-anchor="middle" x="409.5" y="-296.3" font-family="Arial" font-size="14.00">playNoPauseKeys</text>
</g>
<!-- processKey&#45;&gt;playNoPauseKeys -->
<g id="edge43" class="edge">
<title>processKey&#45;&gt;playNoPauseKeys</title>
<path fill="none" stroke="#666666" d="M517.91,-394C478.71,-394 427.25,-394 427.25,-394 427.25,-394 427.25,-325.12 427.25,-325.12"/>
<polygon fill="#666666" stroke="#666666" points="429.7,-325.12 427.25,-318.12 424.8,-325.12 429.7,-325.12"/>
</g>
<!-- processKey&#45;&gt;goto1d -->
<g id="edge41" class="edge">
<title>processKey&#45;&gt;goto1d</title>
<path fill="none" stroke="#666666" d="M605.33,-403C694.57,-403 889,-403 889,-403 889,-403 889,-325.41 889,-325.41"/>
<polygon fill="#666666" stroke="#666666" points="891.45,-325.41 889,-318.41 886.55,-325.41 891.45,-325.41"/>
</g>
<!-- processKey&#45;&gt;cleanup -->
<g id="edge37" class="edge">
<title>processKey&#45;&gt;cleanup</title>
<path fill="none" stroke="#666666" d="M539.75,-375.96C539.75,-362.71 539.75,-347 539.75,-347 539.75,-347 163,-347 163,-347 163,-347 163,-325.04 163,-325.04"/>
<polygon fill="#666666" stroke="#666666" points="165.45,-325.04 163,-318.04 160.55,-325.04 165.45,-325.04"/>
</g>
<!-- processKey&#45;&gt;goToHighDetail -->
<g id="edge39" class="edge">
<title>processKey&#45;&gt;goToHighDetail</title>
<path fill="none" stroke="#666666" d="M561.5,-375.73C561.5,-357.44 561.5,-332 561.5,-332 561.5,-332 306,-332 306,-332 306,-332 306,-325.24 306,-325.24"/>
<polygon fill="#666666" stroke="#666666" points="308.45,-325.24 306,-318.24 303.55,-325.24 308.45,-325.24"/>
</g>
<!-- goToLowDetail -->
<g id="node36" class="node">
<title>goToLowDetail</title>
<path fill="lightgray" stroke="black" d="M602,-318C602,-318 521,-318 521,-318 515,-318 509,-312 509,-306 509,-306 509,-294 509,-294 509,-288 515,-282 521,-282 521,-282 602,-282 602,-282 608,-282 614,-288 614,-294 614,-294 614,-306 614,-306 614,-312 608,-318 602,-318"/>
<text text-anchor="middle" x="561.5" y="-296.3" font-family="Arial" font-size="14.00">goToLowDetail</text>
</g>
<!-- processKey&#45;&gt;goToLowDetail -->
<g id="edge40" class="edge">
<title>processKey&#45;&gt;goToLowDetail</title>
<path fill="none" stroke="#666666" d="M583.25,-375.88C583.25,-375.88 583.25,-325.07 583.25,-325.07"/>
<polygon fill="#666666" stroke="#666666" points="585.7,-325.07 583.25,-318.07 580.8,-325.07 585.7,-325.07"/>
</g>
<!-- demoKeys&#45;&gt;setPlayConditions -->
<g id="edge4" class="edge">
<title>demoKeys&#45;&gt;setPlayConditions</title>
<path fill="none" stroke="#666666" d="M797.5,-281.73C797.5,-263.44 797.5,-238 797.5,-238 797.5,-238 1012.75,-238 1012.75,-238 1012.75,-238 1012.75,-231.24 1012.75,-231.24"/>
<polygon fill="#666666" stroke="#666666" points="1015.2,-231.24 1012.75,-224.24 1010.3,-231.24 1015.2,-231.24"/>
</g>
<!-- goToMonsterView -->
<g id="node13" class="node">
<title>goToMonsterView</title>
<path fill="lightcyan" stroke="black" d="M3374,-130C3374,-130 3273,-130 3273,-130 3267,-130 3261,-124 3261,-118 3261,-118 3261,-106 3261,-106 3261,-100 3267,-94 3273,-94 3273,-94 3374,-94 3374,-94 3380,-94 3386,-100 3386,-106 3386,-106 3386,-118 3386,-118 3386,-124 3380,-130 3374,-130"/>
<text text-anchor="middle" x="3323.5" y="-108.3" font-family="Arial" font-size="14.00">goToMonsterView</text>
</g>
<!-- doDrawing&#45;&gt;goToMonsterView -->
<g id="edge9" class="edge">
<title>doDrawing&#45;&gt;goToMonsterView</title>
<path fill="none" stroke="#666666" d="M3002.32,-212C3096.99,-212 3323.5,-212 3323.5,-212 3323.5,-212 3323.5,-137.34 3323.5,-137.34"/>
<polygon fill="#666666" stroke="#666666" points="3325.95,-137.34 3323.5,-130.34 3321.05,-137.34 3325.95,-137.34"/>
</g>
<!-- goToArmyView -->
<g id="node14" class="node">
<title>goToArmyView</title>
<path fill="lightcyan" stroke="black" d="M2792,-130C2792,-130 2709,-130 2709,-130 2703,-130 2697,-124 2697,-118 2697,-118 2697,-106 2697,-106 2697,-100 2703,-94 2709,-94 2709,-94 2792,-94 2792,-94 2798,-94 2804,-100 2804,-106 2804,-106 2804,-118 2804,-118 2804,-124 2798,-130 2792,-130"/>
<text text-anchor="middle" x="2750.5" y="-108.3" font-family="Arial" font-size="14.00">goToArmyView</text>
</g>
<!-- doDrawing&#45;&gt;goToArmyView -->
<g id="edge7" class="edge">
<title>doDrawing&#45;&gt;goToArmyView</title>
<path fill="none" stroke="#666666" d="M2920.78,-206C2871.99,-206 2796.75,-206 2796.75,-206 2796.75,-206 2796.75,-137.12 2796.75,-137.12"/>
<polygon fill="#666666" stroke="#666666" points="2799.2,-137.12 2796.75,-130.12 2794.3,-137.12 2799.2,-137.12"/>
</g>
<!-- goToMapView -->
<g id="node15" class="node">
<title>goToMapView</title>
<path fill="lightcyan" stroke="black" d="M2930.5,-130C2930.5,-130 2852.5,-130 2852.5,-130 2846.5,-130 2840.5,-124 2840.5,-118 2840.5,-118 2840.5,-106 2840.5,-106 2840.5,-100 2846.5,-94 2852.5,-94 2852.5,-94 2930.5,-94 2930.5,-94 2936.5,-94 2942.5,-100 2942.5,-106 2942.5,-106 2942.5,-118 2942.5,-118 2942.5,-124 2936.5,-130 2930.5,-130"/>
<text text-anchor="middle" x="2891.5" y="-108.3" font-family="Arial" font-size="14.00">goToMapView</text>
</g>
<!-- doDrawing&#45;&gt;goToMapView -->
<g id="edge8" class="edge">
<title>doDrawing&#45;&gt;goToMapView</title>
<path fill="none" stroke="#666666" d="M2931.75,-187.88C2931.75,-187.88 2931.75,-137.07 2931.75,-137.07"/>
<polygon fill="#666666" stroke="#666666" points="2934.2,-137.07 2931.75,-130.07 2929.3,-137.07 2934.2,-137.07"/>
</g>
<!-- goToOverView -->
<g id="node16" class="node">
<title>goToOverView</title>
<path fill="lightcyan" stroke="black" d="M3072,-130C3072,-130 2991,-130 2991,-130 2985,-130 2979,-124 2979,-118 2979,-118 2979,-106 2979,-106 2979,-100 2985,-94 2991,-94 2991,-94 3072,-94 3072,-94 3078,-94 3084,-100 3084,-106 3084,-106 3084,-118 3084,-118 3084,-124 3078,-130 3072,-130"/>
<text text-anchor="middle" x="3031.5" y="-108.3" font-family="Arial" font-size="14.00">goToOverView</text>
</g>
<!-- doDrawing&#45;&gt;goToOverView -->
<g id="edge10" class="edge">
<title>doDrawing&#45;&gt;goToOverView</title>
<path fill="none" stroke="#666666" d="M2990.5,-187.88C2990.5,-187.88 2990.5,-137.07 2990.5,-137.07"/>
<polygon fill="#666666" stroke="#666666" points="2992.95,-137.07 2990.5,-130.07 2988.05,-137.07 2992.95,-137.07"/>
</g>
<!-- drawAMonster -->
<g id="node41" class="node">
<title>drawAMonster</title>
<path fill="lightgray" stroke="black" d="M3212.5,-130C3212.5,-130 3132.5,-130 3132.5,-130 3126.5,-130 3120.5,-124 3120.5,-118 3120.5,-118 3120.5,-106 3120.5,-106 3120.5,-100 3126.5,-94 3132.5,-94 3132.5,-94 3212.5,-94 3212.5,-94 3218.5,-94 3224.5,-100 3224.5,-106 3224.5,-106 3224.5,-118 3224.5,-118 3224.5,-124 3218.5,-130 3212.5,-130"/>
<text text-anchor="middle" x="3172.5" y="-108.3" font-family="Arial" font-size="14.00">drawAMonster</text>
</g>
<!-- doDrawing&#45;&gt;drawAMonster -->
<g id="edge6" class="edge">
<title>doDrawing&#45;&gt;drawAMonster</title>
<path fill="none" stroke="#666666" d="M3002.18,-200C3063.5,-200 3172.5,-200 3172.5,-200 3172.5,-200 3172.5,-137.23 3172.5,-137.23"/>
<polygon fill="#666666" stroke="#666666" points="3174.95,-137.23 3172.5,-130.23 3170.05,-137.23 3174.95,-137.23"/>
</g>
<!-- setmonitor -->
<g id="node44" class="node">
<title>setmonitor</title>
<path fill="lightgray" stroke="black" d="M931.5,-224C931.5,-224 875.5,-224 875.5,-224 869.5,-224 863.5,-218 863.5,-212 863.5,-212 863.5,-200 863.5,-200 863.5,-194 869.5,-188 875.5,-188 875.5,-188 931.5,-188 931.5,-188 937.5,-188 943.5,-194 943.5,-200 943.5,-200 943.5,-212 943.5,-212 943.5,-218 937.5,-224 931.5,-224"/>
<text text-anchor="middle" x="903.5" y="-202.3" font-family="Arial" font-size="14.00">setmonitor</text>
</g>
<!-- goto1d&#45;&gt;setmonitor -->
<g id="edge26" class="edge">
<title>goto1d&#45;&gt;setmonitor</title>
<path fill="none" stroke="#666666" d="M903.5,-281.88C903.5,-281.88 903.5,-231.07 903.5,-231.07"/>
<polygon fill="#666666" stroke="#666666" points="905.95,-231.07 903.5,-224.07 901.05,-231.07 905.95,-231.07"/>
</g>
<!-- addBoom -->
<g id="node29" class="node">
<title>addBoom</title>
<path fill="lightgray" stroke="black" d="M2006,-130C2006,-130 1955,-130 1955,-130 1949,-130 1943,-124 1943,-118 1943,-118 1943,-106 1943,-106 1943,-100 1949,-94 1955,-94 1955,-94 2006,-94 2006,-94 2012,-94 2018,-100 2018,-106 2018,-106 2018,-118 2018,-118 2018,-124 2012,-130 2006,-130"/>
<text text-anchor="middle" x="1980.5" y="-108.3" font-family="Arial" font-size="14.00">addBoom</text>
</g>
<!-- updateProjectiles&#45;&gt;addBoom -->
<g id="edge51" class="edge">
<title>updateProjectiles&#45;&gt;addBoom</title>
<path fill="none" stroke="#666666" d="M1993.25,-187.88C1993.25,-187.88 1993.25,-137.07 1993.25,-137.07"/>
<polygon fill="#666666" stroke="#666666" points="1995.7,-137.07 1993.25,-130.07 1990.8,-137.07 1995.7,-137.07"/>
</g>
<!-- addScore -->
<g id="node30" class="node">
<title>addScore</title>
<path fill="lightgray" stroke="black" d="M2144.5,-130C2144.5,-130 2094.5,-130 2094.5,-130 2088.5,-130 2082.5,-124 2082.5,-118 2082.5,-118 2082.5,-106 2082.5,-106 2082.5,-100 2088.5,-94 2094.5,-94 2094.5,-94 2144.5,-94 2144.5,-94 2150.5,-94 2156.5,-100 2156.5,-106 2156.5,-106 2156.5,-118 2156.5,-118 2156.5,-124 2150.5,-130 2144.5,-130"/>
<text text-anchor="middle" x="2119.5" y="-108.3" font-family="Arial" font-size="14.00">addScore</text>
</g>
<!-- updateProjectiles&#45;&gt;addScore -->
<g id="edge52" class="edge">
<title>updateProjectiles&#45;&gt;addScore</title>
<path fill="none" stroke="#666666" d="M2088.6,-206C2099.11,-206 2106.75,-206 2106.75,-206 2106.75,-206 2106.75,-137.12 2106.75,-137.12"/>
<polygon fill="#666666" stroke="#666666" points="2109.2,-137.12 2106.75,-130.12 2104.3,-137.12 2109.2,-137.12"/>
</g>
<!-- updateTargets&#45;&gt;updateDeadMonster -->
<g id="edge57" class="edge">
<title>updateTargets&#45;&gt;updateDeadMonster</title>
<path fill="none" stroke="#666666" d="M2405.5,-187.88C2405.5,-187.88 2405.5,-137.07 2405.5,-137.07"/>
<polygon fill="#666666" stroke="#666666" points="2407.95,-137.07 2405.5,-130.07 2403.05,-137.07 2407.95,-137.07"/>
</g>
<!-- updateTargets&#45;&gt;updateVapourLook -->
<g id="edge58" class="edge">
<title>updateTargets&#45;&gt;updateVapourLook</title>
<path fill="none" stroke="#666666" d="M2354.5,-187.88C2354.5,-160.56 2354.5,-112 2354.5,-112 2354.5,-112 2343.9,-112 2343.9,-112"/>
<polygon fill="#666666" stroke="#666666" points="2343.9,-109.55 2336.9,-112 2343.9,-114.45 2343.9,-109.55"/>
</g>
<!-- updateBooms&#45;&gt;addScore -->
<g id="edge49" class="edge">
<title>updateBooms&#45;&gt;addScore</title>
<path fill="none" stroke="#666666" d="M2140.75,-187.88C2140.75,-187.88 2140.75,-137.07 2140.75,-137.07"/>
<polygon fill="#666666" stroke="#666666" points="2143.2,-137.07 2140.75,-130.07 2138.3,-137.07 2143.2,-137.07"/>
</g>
<!-- updateSlagTanks&#45;&gt;addBoom -->
<g id="edge53" class="edge">
<title>updateSlagTanks&#45;&gt;addBoom</title>
<path fill="none" stroke="#666666" d="M1932.56,-206C1945.69,-206 1955.75,-206 1955.75,-206 1955.75,-206 1955.75,-137.12 1955.75,-137.12"/>
<polygon fill="#666666" stroke="#666666" points="1958.2,-137.12 1955.75,-130.12 1953.3,-137.12 1958.2,-137.12"/>
</g>
<!-- updateSlagTanks&#45;&gt;checkForBlock -->
<g id="edge55" class="edge">
<title>updateSlagTanks&#45;&gt;checkForBlock</title>
<path fill="none" stroke="#666666" d="M1816.75,-187.88C1816.75,-187.88 1816.75,-137.07 1816.75,-137.07"/>
<polygon fill="#666666" stroke="#666666" points="1819.2,-137.07 1816.75,-130.07 1814.3,-137.07 1819.2,-137.07"/>
</g>
<!-- updateSlagTanks&#45;&gt;quickTanks -->
<g id="edge56" class="edge">
<title>updateSlagTanks&#45;&gt;quickTanks</title>
<path fill="none" stroke="#666666" d="M1812.08,-206C1765.51,-206 1709,-206 1709,-206 1709,-206 1709,-112 1709,-112 1709,-112 1466.26,-112 1466.26,-112"/>
<polygon fill="#666666" stroke="#666666" points="1466.26,-109.55 1459.26,-112 1466.26,-114.45 1466.26,-109.55"/>
</g>
<!-- updateSlagTanks&#45;&gt;addProjectile -->
<g id="edge54" class="edge">
<title>updateSlagTanks&#45;&gt;addProjectile</title>
<path fill="none" stroke="#666666" d="M1876.75,-187.97C1876.75,-140.92 1876.75,-18 1876.75,-18 1876.75,-18 2387.75,-18 2387.75,-18"/>
<polygon fill="#666666" stroke="#666666" points="2387.75,-20.45 2394.75,-18 2387.75,-15.55 2387.75,-20.45"/>
</g>
<!-- updatetrees&#45;&gt;addProjectile -->
<g id="edge59" class="edge">
<title>updatetrees&#45;&gt;addProjectile</title>
<path fill="none" stroke="#666666" d="M2659.75,-187.97C2659.75,-140.92 2659.75,-18 2659.75,-18 2659.75,-18 2497.18,-18 2497.18,-18"/>
<polygon fill="#666666" stroke="#666666" points="2497.18,-15.55 2490.18,-18 2497.18,-20.45 2497.18,-15.55"/>
</g>
<!-- updateDeadMonster&#45;&gt;addProjectile -->
<g id="edge50" class="edge">
<title>updateDeadMonster&#45;&gt;addProjectile</title>
<path fill="none" stroke="#666666" d="M2442.5,-93.88C2442.5,-93.88 2442.5,-43.07 2442.5,-43.07"/>
<polygon fill="#666666" stroke="#666666" points="2444.95,-43.07 2442.5,-36.07 2440.05,-43.07 2444.95,-43.07"/>
</g>
<!-- setPlayConditions&#45;&gt;quickTanks -->
<g id="edge46" class="edge">
<title>setPlayConditions&#45;&gt;quickTanks</title>
<path fill="none" stroke="#666666" d="M1124.04,-206C1172.25,-206 1230.75,-206 1230.75,-206 1230.75,-206 1230.75,-112 1230.75,-112 1230.75,-112 1368.59,-112 1368.59,-112"/>
<polygon fill="#666666" stroke="#666666" points="1368.59,-114.45 1375.59,-112 1368.59,-109.55 1368.59,-114.45"/>
</g>
<!-- buildHillPart -->
<g id="node34" class="node">
<title>buildHillPart</title>
<path fill="lightgray" stroke="black" d="M1084,-130C1084,-130 1019,-130 1019,-130 1013,-130 1007,-124 1007,-118 1007,-118 1007,-106 1007,-106 1007,-100 1013,-94 1019,-94 1019,-94 1084,-94 1084,-94 1090,-94 1096,-100 1096,-106 1096,-106 1096,-118 1096,-118 1096,-124 1090,-130 1084,-130"/>
<text text-anchor="middle" x="1051.5" y="-108.3" font-family="Arial" font-size="14.00">buildHillPart</text>
</g>
<!-- setPlayConditions&#45;&gt;buildHillPart -->
<g id="edge45" class="edge">
<title>setPlayConditions&#45;&gt;buildHillPart</title>
<path fill="none" stroke="#666666" d="M1051.5,-187.88C1051.5,-187.88 1051.5,-137.07 1051.5,-137.07"/>
<polygon fill="#666666" stroke="#666666" points="1053.95,-137.07 1051.5,-130.07 1049.05,-137.07 1053.95,-137.07"/>
</g>
<!-- setPlayConditions&#45;&gt;addNewTank -->
<g id="edge44" class="edge">
<title>setPlayConditions&#45;&gt;addNewTank</title>
<path fill="none" stroke="#666666" d="M1110,-187.88C1110,-160.56 1110,-112 1110,-112 1110,-112 1124.99,-112 1124.99,-112"/>
<polygon fill="#666666" stroke="#666666" points="1124.99,-114.45 1131.99,-112 1124.99,-109.55 1124.99,-114.45"/>
</g>
<!-- addRandomTarget&#45;&gt;addProjectile -->
<g id="edge1" class="edge">
<title>addRandomTarget&#45;&gt;addProjectile</title>
<path fill="none" stroke="#666666" d="M1298.5,-187.82C1298.5,-139.05 1298.5,-9 1298.5,-9 1298.5,-9 2387.8,-9 2387.8,-9"/>
<polygon fill="#666666" stroke="#666666" points="2387.8,-11.45 2394.8,-9 2387.8,-6.55 2387.8,-11.45"/>
</g>
<!-- showCommands&#45;&gt;cleanup -->
<g id="edge47" class="edge">
<title>showCommands&#45;&gt;cleanup</title>
<path fill="none" stroke="#666666" d="M110.25,-375.88C110.25,-375.88 110.25,-325.07 110.25,-325.07"/>
<polygon fill="#666666" stroke="#666666" points="112.7,-325.07 110.25,-318.07 107.8,-325.07 112.7,-325.07"/>
</g>
<!-- signal_handler -->
<g id="node38" class="node">
<title>signal_handler</title>
<path fill="lightgray" stroke="black" d="M247.5,-412C247.5,-412 167.5,-412 167.5,-412 161.5,-412 155.5,-406 155.5,-400 155.5,-400 155.5,-388 155.5,-388 155.5,-382 161.5,-376 167.5,-376 167.5,-376 247.5,-376 247.5,-376 253.5,-376 259.5,-382 259.5,-388 259.5,-388 259.5,-400 259.5,-400 259.5,-406 253.5,-412 247.5,-412"/>
<text text-anchor="middle" x="207.5" y="-390.3" font-family="Arial" font-size="14.00">signal_handler</text>
</g>
<!-- signal_handler&#45;&gt;cleanup -->
<g id="edge48" class="edge">
<title>signal_handler&#45;&gt;cleanup</title>
<path fill="none" stroke="#666666" d="M158,-375.88C158,-375.88 158,-325.07 158,-325.07"/>
<polygon fill="#666666" stroke="#666666" points="160.45,-325.07 158,-318.07 155.55,-325.07 160.45,-325.07"/>
</g>
</g>
</svg>
